<svg width="256" height="256" viewBox="0 0 256 256" fill="none" xmlns="http://www.w3.org/2000/svg">
<path d="M232.49 55.5099L200.49 23.5099C199.375 22.3912 198.05 21.5036 196.592 20.8979C195.133 20.2922 193.569 19.9805 191.99 19.9805C190.411 19.9805 188.847 20.2922 187.388 20.8979C185.93 21.5036 184.605 22.3912 183.49 23.5099L87.49 119.51C85.2475 121.766 83.9922 124.819 84 128V160C84 163.183 85.2643 166.235 87.5147 168.485C89.7652 170.736 92.8174 172 96 172H128C129.576 172.001 131.137 171.692 132.594 171.09C134.051 170.487 135.375 169.604 136.49 168.49L232.49 72.4899C233.606 71.3755 234.491 70.052 235.095 68.5952C235.699 67.1384 236.009 65.5769 236.009 63.9999C236.009 62.4229 235.699 60.8614 235.095 59.4046C234.491 57.9479 233.606 56.6244 232.49 55.5099ZM192 48.9999L207 63.9999L196 74.9999L181 59.9999L192 48.9999ZM123 148H108V133L164 76.9999L179 91.9999L123 148ZM228 140.57V208C228 213.304 225.893 218.391 222.142 222.142C218.391 225.893 213.304 228 208 228H48C42.6957 228 37.6086 225.893 33.8579 222.142C30.1071 218.391 28 213.304 28 208V47.9999C28 42.6956 30.1071 37.6085 33.8579 33.8578C37.6086 30.1071 42.6957 27.9999 48 27.9999H115.43C118.613 27.9999 121.665 29.2642 123.915 31.5147C126.166 33.7651 127.43 36.8173 127.43 39.9999C127.43 43.1825 126.166 46.2348 123.915 48.4852C121.665 50.7357 118.613 51.9999 115.43 51.9999H52V204H204V140.57C204 137.387 205.264 134.335 207.515 132.085C209.765 129.834 212.817 128.57 216 128.57C219.183 128.57 222.235 129.834 224.485 132.085C226.736 134.335 228 137.387 228 140.57Z" fill="white"/>
</svg>
