<svg width="256" height="256" viewBox="0 0 256 256" fill="none" xmlns="http://www.w3.org/2000/svg">
<path d="M127.999 75.9999C117.715 75.9999 107.661 79.0496 99.1097 84.7635C90.5584 90.4773 83.8934 98.5986 79.9576 108.1C76.0219 117.602 74.9921 128.058 76.9985 138.145C79.005 148.232 83.9575 157.497 91.2298 164.769C98.5021 172.042 107.768 176.994 117.855 179.001C127.942 181.007 138.397 179.977 147.899 176.042C157.401 172.106 165.522 165.441 171.236 156.89C176.95 148.338 179.999 138.285 179.999 128C179.983 114.214 174.5 100.996 164.751 91.2479C155.003 81.4994 141.786 76.0158 127.999 75.9999ZM127.999 156C122.461 156 117.048 154.358 112.443 151.281C107.839 148.204 104.25 143.831 102.131 138.715C100.011 133.599 99.457 127.969 100.537 122.537C101.618 117.106 104.285 112.117 108.2 108.201C112.116 104.285 117.105 101.618 122.537 100.538C127.968 99.4575 133.598 100.012 138.714 102.131C143.831 104.251 148.204 107.839 151.281 112.444C154.357 117.048 155.999 122.462 155.999 128C155.999 135.426 153.049 142.548 147.798 147.799C142.547 153.05 135.425 156 127.999 156ZM219.999 128.79V127.21L233.999 109.7C235.175 108.233 235.989 106.51 236.376 104.671C236.763 102.831 236.713 100.926 236.229 99.1099C233.702 89.5811 229.926 80.4284 224.999 71.8899C224.05 70.2617 222.731 68.88 221.148 67.8567C219.565 66.8334 217.764 66.1973 215.889 65.9999L193.609 63.4999L192.499 62.3899L189.999 40.0999C189.8 38.2273 189.164 36.4278 188.14 34.8469C187.117 33.2661 185.736 31.9482 184.109 30.9999C175.57 26.0571 166.414 22.2675 156.879 19.7299C155.061 19.2533 153.157 19.2104 151.319 19.6047C149.481 19.999 147.762 20.8194 146.299 21.9999L128.789 35.9999H127.209L109.699 21.9999C108.232 20.8247 106.509 20.0106 104.67 19.6233C102.831 19.2359 100.926 19.2862 99.1094 19.7699C89.5781 22.3126 80.4253 26.1055 71.8894 31.0499C70.2675 31.9943 68.8898 33.3059 67.8668 34.8794C66.8439 36.4528 66.2043 38.2443 65.9994 40.1099L63.4994 62.3899L62.3894 63.4999L40.0994 65.9999C38.2268 66.1988 36.4273 66.8356 34.8464 67.8588C33.2655 68.882 31.9476 70.263 30.9994 71.8899C26.0704 80.431 22.2943 89.5873 19.7694 99.1199C19.2873 100.935 19.2379 102.838 19.6252 104.675C20.0125 106.513 20.8257 108.234 21.9994 109.7L35.9994 127.21V128.79L21.9994 146.3C20.8242 147.767 20.0101 149.49 19.6228 151.329C19.2354 153.169 19.2856 155.073 19.7694 156.89C22.3152 166.422 26.1115 175.574 31.0594 184.11C32.0027 185.73 33.3128 187.107 34.8844 188.13C36.4561 189.153 38.2456 189.794 40.1094 190L62.3894 192.48L63.4994 193.59L65.9994 215.9C66.1982 217.772 66.8351 219.572 67.8583 221.153C68.8815 222.734 70.2624 224.052 71.8894 225C80.4284 229.943 89.5848 233.732 99.1194 236.27C100.937 236.747 102.842 236.789 104.68 236.395C106.517 236.001 108.237 235.18 109.699 234L127.209 220H128.789L146.299 234C147.767 235.175 149.489 235.989 151.329 236.376C153.168 236.764 155.073 236.714 156.889 236.23C166.418 233.703 175.571 229.927 184.109 225C185.735 224.058 187.117 222.747 188.143 221.174C189.17 219.6 189.812 217.807 190.019 215.94L192.499 193.66L193.609 192.55L215.899 190C217.767 189.793 219.559 189.15 221.133 188.124C222.707 187.097 224.017 185.715 224.959 184.09C229.902 175.551 233.692 166.394 236.229 156.86C236.708 155.048 236.756 153.149 236.369 151.315C235.981 149.481 235.17 147.764 233.999 146.3L219.999 128.79ZM195.879 123.9C196.04 126.631 196.04 129.369 195.879 132.1C195.701 135.069 196.631 137.998 198.489 140.32L211.329 156.37C210.117 159.958 208.671 163.462 206.999 166.86L186.569 169.13C183.611 169.468 180.885 170.894 178.919 173.13C177.103 175.177 175.166 177.113 173.119 178.93C170.883 180.895 169.458 183.622 169.119 186.58L166.859 207C163.462 208.678 159.958 210.131 156.369 211.35L140.319 198.5C138.189 196.8 135.544 195.876 132.819 195.88H132.099C129.368 196.04 126.63 196.04 123.899 195.88C120.933 195.704 118.005 196.63 115.679 198.48L99.6294 211.33C96.0417 210.118 92.5375 208.671 89.1394 207L86.8694 186.57C86.5312 183.612 85.1055 180.885 82.8694 178.92C80.8227 177.103 78.886 175.167 77.0694 173.12C75.1038 170.884 72.3773 169.458 69.4194 169.12L48.9994 166.86C47.3211 163.462 45.868 159.958 44.6494 156.37L57.4894 140.32C59.3479 137.998 60.2781 135.069 60.0994 132.1C59.9391 129.369 59.9391 126.631 60.0994 123.9C60.2781 120.931 59.3479 118.002 57.4894 115.68L44.6694 99.6299C45.8815 96.0422 47.328 92.538 48.9994 89.1399L69.4294 86.8699C72.3873 86.5317 75.1138 85.106 77.0794 82.8699C78.896 80.8232 80.8327 78.8865 82.8794 77.0699C85.1155 75.1044 86.5412 72.3778 86.8794 69.4199L89.1394 48.9999C92.537 47.3217 96.0412 45.8685 99.6294 44.6499L115.679 57.4999C118.005 59.3498 120.933 60.2757 123.899 60.0999C126.63 59.9397 129.368 59.9397 132.099 60.0999C135.067 60.2814 137.996 59.3549 140.319 57.4999L156.369 44.6499C159.958 45.8685 163.462 47.3217 166.859 48.9999L169.129 69.4299C169.468 72.3878 170.893 75.1144 173.129 77.0799C175.176 78.8965 177.113 80.8332 178.929 82.8799C180.895 85.116 183.621 86.5417 186.579 86.8799L206.999 89.1399C208.678 92.5375 210.131 96.0417 211.349 99.6299L198.509 115.68C196.644 117.999 195.706 120.929 195.879 123.9Z" fill="black"/>
</svg>
