<svg width="256" height="256" viewBox="0 0 256 256" fill="none" xmlns="http://www.w3.org/2000/svg">
<path d="M216.49 104.49L136.49 184.49C135.375 185.609 134.05 186.496 132.591 187.102C131.133 187.708 129.569 188.02 127.99 188.02C126.41 188.02 124.846 187.708 123.388 187.102C121.929 186.496 120.604 185.609 119.49 184.49L39.4896 104.49C37.2352 102.236 35.9687 99.1782 35.9688 95.99C35.9688 92.8019 37.2352 89.7444 39.4896 87.49C41.7439 85.2357 44.8014 83.9692 47.9896 83.9692C51.1777 83.9692 54.2352 85.2357 56.4896 87.49L128 159L199.51 87.48C201.764 85.2257 204.821 83.9592 208.01 83.9592C211.198 83.9592 214.255 85.2257 216.51 87.48C218.764 89.7344 220.03 92.7919 220.03 95.98C220.03 99.1682 218.764 102.226 216.51 104.48L216.49 104.49Z" fill="black"/>
</svg>
