<svg width="256" height="256" viewBox="0 0 256 256" fill="none" xmlns="http://www.w3.org/2000/svg">
<path d="M228 128C228 131.183 226.736 134.235 224.485 136.485C222.235 138.736 219.183 140 216 140H140V216C140 219.183 138.736 222.235 136.485 224.485C134.235 226.736 131.183 228 128 228C124.817 228 121.765 226.736 119.515 224.485C117.264 222.235 116 219.183 116 216V140H40C36.8174 140 33.7652 138.736 31.5147 136.485C29.2643 134.235 28 131.183 28 128C28 124.817 29.2643 121.765 31.5147 119.515C33.7652 117.264 36.8174 116 40 116H116V40C116 36.8174 117.264 33.7652 119.515 31.5147C121.765 29.2643 124.817 28 128 28C131.183 28 134.235 29.2643 136.485 31.5147C138.736 33.7652 140 36.8174 140 40V116H216C219.183 116 222.235 117.264 224.485 119.515C226.736 121.765 228 124.817 228 128Z" fill="white"/>
</svg>
