<svg width="256" height="256" viewBox="0 0 256 256" fill="none" xmlns="http://www.w3.org/2000/svg">
<path d="M224 56C224 58.1217 223.157 60.1566 221.657 61.6569C220.157 63.1571 218.122 64 216 64H208V208C208 212.243 206.314 216.313 203.314 219.314C200.313 222.314 196.243 224 192 224H64C59.7565 224 55.6869 222.314 52.6863 219.314C49.6857 216.313 48 212.243 48 208V64H40C37.8783 64 35.8434 63.1571 34.3431 61.6569C32.8429 60.1566 32 58.1217 32 56C32 53.8783 32.8429 51.8434 34.3431 50.3431C35.8434 48.8429 37.8783 48 40 48H216C218.122 48 220.157 48.8429 221.657 50.3431C223.157 51.8434 224 53.8783 224 56ZM88 32H168C170.122 32 172.157 31.1571 173.657 29.6569C175.157 28.1566 176 26.1217 176 24C176 21.8783 175.157 19.8434 173.657 18.3431C172.157 16.8429 170.122 16 168 16H88C85.8783 16 83.8434 16.8429 82.3431 18.3431C80.8429 19.8434 80 21.8783 80 24C80 26.1217 80.8429 28.1566 82.3431 29.6569C83.8434 31.1571 85.8783 32 88 32Z" fill="white"/>
</svg>
